<svg width="290" height="161" viewBox="0 0 290 161" fill="none" xmlns="http://www.w3.org/2000/svg">
<g clip-path="url(#clip0)">
<path opacity="0.1" d="M290.001 103.407C290.006 107.769 289.422 112.115 288.26 116.349C287.87 117.776 287.416 119.173 286.899 120.541C286.266 122.228 285.533 123.884 284.703 125.501C284.284 126.319 283.842 127.12 283.375 127.905C283.383 132.378 282.363 136.804 280.379 140.904C276.793 148.258 270.398 154.205 262.361 157.66C257.335 159.824 251.843 160.962 246.275 160.993H55.0529C46.5451 161.01 38.1841 158.992 30.8202 155.146L30.7069 155.089C29.658 154.535 28.6354 153.948 27.6391 153.329C25.3973 151.931 23.2911 150.364 21.3433 148.644C18.7069 146.319 16.3838 143.721 14.4221 140.904C9.81486 134.301 7.37418 126.655 7.38274 118.852C2.71692 111.462 -0.00378799 102.611 -0.00378799 93.0994C-0.00378799 81.0989 4.31979 70.1518 11.4232 61.8648C12.9041 60.1335 14.5263 58.5044 16.2761 56.9913C18.0027 55.4939 19.8585 54.1229 21.8259 52.8911C23.3999 51.9045 25.045 51.0137 26.7502 50.2243C27.4618 49.8977 28.1758 49.5887 28.9022 49.3021C29.5399 49.0465 30.185 48.8087 30.8374 48.5843C31.6204 48.3161 32.4132 48.0694 33.2159 47.8442C34.0186 47.619 34.8106 47.422 35.5919 47.2531C36.7409 46.9998 37.9096 46.7938 39.098 46.6353C40.0829 46.5042 41.0678 46.4131 42.0526 46.3442C42.8356 46.2908 43.626 46.2619 44.4213 46.2531H44.8521C45.7287 46.2531 46.6003 46.2842 47.4645 46.3375C47.5556 46.1731 47.6541 46.0064 47.7452 45.8441C48.0899 45.2508 48.4469 44.6597 48.8064 44.0819C48.8056 44.0767 48.8056 44.0715 48.8064 44.0663C48.8679 43.9641 48.9295 43.8641 48.9935 43.7663C49.2841 43.2929 49.5869 42.824 49.8971 42.3596C50.0399 42.1373 50.1803 41.9284 50.3256 41.7195C50.3563 41.6676 50.39 41.6172 50.4265 41.5684C50.5742 41.3462 50.7244 41.124 50.8771 40.9017C51.6371 39.8054 52.4274 38.7283 53.2482 37.6705L53.4574 37.3994C53.5855 37.2349 53.7037 37.0749 53.8465 36.9104C54.1862 36.4815 54.5359 36.0504 54.888 35.6282C55.1342 35.3259 55.3804 35.0259 55.6463 34.7392C56.2865 33.9985 56.9431 33.2577 57.6161 32.5169C58.289 31.7762 58.9883 31.045 59.7138 30.3235C59.8123 30.2235 59.9108 30.1257 60.0142 30.0279L61.0656 28.9923C61.1173 28.9435 61.1616 28.899 61.2108 28.8546C61.3364 28.7323 61.457 28.6101 61.5925 28.4923C62.1563 27.9523 62.7349 27.4234 63.316 26.8967C66.2732 24.2382 69.4236 21.7608 72.7461 19.4808C72.8766 19.3875 73.0096 19.2986 73.1401 19.2097C73.7655 18.7853 74.4007 18.3652 75.0359 17.9519C78.53 15.6895 82.1825 13.6332 85.9705 11.7961C86.2315 11.6605 86.4974 11.5338 86.7658 11.4094C90.1617 9.7878 93.6543 8.33664 97.2275 7.06254C99.1751 6.36696 101.167 5.7136 103.171 5.1158C104.506 4.72022 105.845 4.34465 107.202 3.99131C109.323 3.44017 111.458 2.94608 113.608 2.50902C119.943 1.22605 126.388 0.433507 132.872 0.140035C134.842 0.0496606 136.834 0.00299261 138.848 2.9525e-05C148.566 -0.0115829 158.247 1.09364 167.656 3.28905C167.753 3.42175 167.886 3.52992 168.042 3.6034C168.199 3.67688 168.373 3.71324 168.549 3.70907H169.377C169.736 3.79796 170.093 3.88686 170.453 3.98019C172.46 4.5017 174.439 5.07135 176.389 5.68915L176.881 5.84916C181.694 7.39388 186.377 9.25065 190.894 11.4049C194.965 13.3423 198.885 15.5282 202.626 17.9474C203.202 18.3208 203.77 18.6971 204.33 19.0764C205.009 18.6838 205.7 18.3075 206.403 17.9474C209.116 16.5528 211.998 15.444 214.991 14.6429C221.249 12.9713 227.871 12.7375 234.255 13.9628C242.442 15.5296 249.853 19.4186 255.838 24.95C258.276 27.2131 260.445 29.6992 262.312 32.368C262.447 32.5592 262.582 32.7525 262.713 32.9481C264.317 35.3101 265.696 37.791 266.835 40.3639C266.876 40.4595 266.918 40.5484 266.955 40.6417C268.006 43.051 268.854 45.5285 269.491 48.0531C269.521 48.182 269.555 48.3087 269.585 48.4376C270.181 50.8809 270.586 53.3589 270.796 55.8535C270.796 55.9423 270.796 56.0335 270.816 56.1268C270.919 57.4172 270.972 58.721 270.973 60.0381C270.973 61.2159 270.929 62.3848 270.848 63.5449C270.848 63.6716 270.828 63.8027 270.816 63.9338C270.794 64.2694 270.762 64.6005 270.73 64.9383C272.61 66.3073 274.37 67.806 275.994 69.4207C276.711 70.1274 277.405 70.8607 278.077 71.6208C280.122 73.934 281.919 76.4171 283.444 79.0366C287.608 86.1303 290.001 94.4751 290.001 103.407Z" fill="#6B00FF"/>
<path opacity="0.1" d="M262.177 156.838C262.177 158.355 256.384 159.778 246.274 161H55.0518C46.5439 161.016 38.183 158.999 30.8191 155.153L30.7058 155.095C33.6112 154.14 38.8556 153.249 45.9934 152.444L46.3135 152.409C49.5144 152.055 53.0919 151.72 57.0018 151.402C57.1003 151.402 57.2013 151.388 57.2998 151.377C60.4021 151.128 63.7022 150.895 67.2002 150.677C67.311 150.677 67.4193 150.66 67.5301 150.655C68.8794 150.568 70.2565 150.485 71.6616 150.406L72.2033 150.375C82.4336 149.802 94.0625 149.344 106.674 149.042H106.689C108.455 148.997 110.24 148.958 112.044 148.924C114.05 148.881 116.08 148.843 118.135 148.811C119.704 148.779 121.292 148.757 122.885 148.735H122.922C130.109 148.637 137.535 148.588 145.128 148.588C163.905 148.588 181.652 148.897 197.378 149.453H197.422C199.84 149.537 202.214 149.631 204.528 149.726L206.498 149.811C209.109 149.923 211.654 150.044 214.131 150.173C243.258 151.669 262.177 154.098 262.177 156.838Z" fill="#6B00FF"/>
<g opacity="0.2">
<path opacity="0.2" d="M167.497 147.568C167.489 147.808 167.459 148.047 167.406 148.282C165.692 148.036 163.969 147.814 162.235 147.615C162.235 147.553 162.235 147.488 162.235 147.424C162.251 146.758 162.464 146.107 162.851 145.539C163.358 144.815 164.129 144.362 164.978 144.386C165.828 144.41 166.564 144.906 167.019 145.655C167.364 146.243 167.529 146.904 167.497 147.568V147.568Z" fill="var(--progress-color")/>
<path opacity="0.2" d="M167.638 143.771C167.699 142.052 166.568 140.625 165.114 140.584C163.66 140.542 162.432 141.902 162.372 143.621C162.312 145.339 163.442 146.766 164.896 146.808C166.35 146.849 167.578 145.489 167.638 143.771Z" fill="var(--progress-color")/>
<path opacity="0.2" d="M167.773 139.966C167.833 138.247 166.703 136.821 165.248 136.779C163.794 136.738 162.566 138.097 162.506 139.816C162.446 141.535 163.576 142.961 165.031 143.003C166.485 143.044 167.713 141.685 167.773 139.966Z" fill="var(--progress-color")/>
<path opacity="0.2" d="M167.905 136.161C167.965 134.443 166.835 133.016 165.38 132.974C163.926 132.933 162.698 134.293 162.638 136.011C162.578 137.73 163.708 139.157 165.162 139.198C166.617 139.24 167.844 137.88 167.905 136.161Z" fill="var(--progress-color")/>
<path opacity="0.2" d="M168.036 132.357C168.097 130.638 166.966 129.211 165.512 129.17C164.058 129.128 162.83 130.488 162.77 132.206C162.71 133.925 163.84 135.352 165.294 135.394C166.749 135.435 167.976 134.075 168.036 132.357Z" fill="var(--progress-color")/>
<path opacity="0.2" d="M156.442 105.958C156.095 105.534 155.782 105.088 155.506 104.624L162.464 103.795L154.974 103.633C154.306 102.202 153.968 100.663 153.981 99.1103C153.994 97.5574 154.358 96.0233 155.051 94.6017L164.929 99.5908L155.88 93.1816C156.793 91.8491 158.001 90.7007 159.427 89.8083C160.854 88.9158 162.469 88.2985 164.172 87.9948C165.875 87.691 167.628 87.7075 169.324 88.0431C171.019 88.3786 172.62 89.0261 174.026 89.9451C175.432 90.8641 176.612 92.0348 177.494 93.3842C178.376 94.7336 178.94 96.2326 179.152 97.7876C179.363 99.3426 179.217 100.92 178.722 102.422C178.227 103.924 177.395 105.317 176.277 106.515C176.816 107.175 177.275 107.885 177.644 108.633L168.511 112.589L178.195 109.96C178.805 111.776 178.903 113.701 178.481 115.56C178.059 117.419 177.129 119.154 175.777 120.607C177.183 122.329 178.024 124.373 178.203 126.506C178.383 128.638 177.894 130.774 176.792 132.667C175.69 134.561 174.02 136.136 171.973 137.213C169.926 138.291 167.584 138.826 165.216 138.759C162.847 138.691 160.547 138.024 158.58 136.832C156.612 135.641 155.055 133.973 154.088 132.021C153.12 130.069 152.781 127.91 153.109 125.792C153.437 123.673 154.419 121.681 155.942 120.043C154.262 117.985 153.398 115.478 153.487 112.923C153.576 110.369 154.614 107.916 156.434 105.958H156.442Z" fill="#6B00FF"/>
<path opacity="0.1" d="M178.732 113.642C178.646 116.198 177.604 118.653 175.777 120.607C177.183 122.329 178.024 124.373 178.203 126.506C178.383 128.638 177.894 130.774 176.792 132.667C175.69 134.561 174.02 136.136 171.973 137.213C169.926 138.291 167.584 138.826 165.216 138.759C162.847 138.691 160.547 138.024 158.58 136.832C156.612 135.641 155.055 133.973 154.088 132.021C153.12 130.069 152.781 127.91 153.109 125.792C153.437 123.673 154.419 121.681 155.942 120.043C154.324 118.058 178.776 112.365 178.732 113.642Z" fill="black"/>
</g>
<g opacity="0.2">
<path opacity="0.2" d="M130.072 147.568C130.064 147.808 130.033 148.047 129.981 148.282C128.267 148.036 126.544 147.814 124.81 147.615C124.81 147.553 124.81 147.488 124.81 147.424C124.826 146.758 125.039 146.107 125.426 145.539C125.933 144.815 126.704 144.362 127.553 144.386C128.402 144.41 129.139 144.906 129.594 145.655C129.939 146.243 130.104 146.904 130.072 147.568V147.568Z" fill="var(--progress-color")/>
<path opacity="0.2" d="M130.211 143.772C130.271 142.053 129.141 140.626 127.686 140.585C126.232 140.543 125.004 141.903 124.944 143.622C124.884 145.34 126.014 146.767 127.468 146.809C128.923 146.85 130.15 145.49 130.211 143.772Z" fill="var(--progress-color")/>
<path opacity="0.2" d="M130.345 139.967C130.405 138.248 129.275 136.821 127.821 136.78C126.366 136.739 125.139 138.098 125.079 139.817C125.018 141.535 126.149 142.962 127.603 143.004C129.057 143.045 130.285 141.686 130.345 139.967Z" fill="var(--progress-color")/>
<path opacity="0.2" d="M130.477 136.162C130.537 134.444 129.407 133.017 127.953 132.975C126.498 132.934 125.271 134.293 125.21 136.012C125.15 137.731 126.28 139.158 127.735 139.199C129.189 139.241 130.417 137.881 130.477 136.162Z" fill="var(--progress-color")/>
<path opacity="0.2" d="M130.609 132.358C130.669 130.639 129.539 129.212 128.084 129.171C126.63 129.129 125.402 130.489 125.342 132.207C125.282 133.926 126.412 135.353 127.866 135.394C129.321 135.436 130.548 134.076 130.609 132.358Z" fill="var(--progress-color")/>
<path opacity="0.2" d="M119.017 105.958C118.67 105.534 118.357 105.088 118.081 104.624L125.039 103.795L117.549 103.633C116.881 102.202 116.543 100.663 116.556 99.1103C116.569 97.5574 116.933 96.0233 117.626 94.6017L127.504 99.5908L118.455 93.1816C119.368 91.8491 120.575 90.7007 122.002 89.8083C123.429 88.9158 125.044 88.2985 126.747 87.9948C128.449 87.691 130.203 87.7075 131.899 88.0431C133.594 88.3786 135.195 89.0261 136.601 89.9451C138.006 90.8641 139.187 92.0348 140.069 93.3842C140.951 94.7336 141.515 96.2326 141.727 97.7876C141.938 99.3426 141.792 100.92 141.297 102.422C140.802 103.924 139.97 105.317 138.852 106.515C139.391 107.175 139.849 107.885 140.218 108.633L131.086 112.589L140.77 109.96C141.38 111.776 141.478 113.701 141.056 115.56C140.634 117.419 139.704 119.154 138.352 120.607C139.758 122.329 140.599 124.373 140.778 126.506C140.958 128.638 140.468 130.774 139.367 132.667C138.265 134.561 136.595 136.136 134.548 137.213C132.501 138.291 130.159 138.826 127.791 138.759C125.422 138.691 123.122 138.024 121.154 136.832C119.187 135.641 117.63 133.973 116.663 132.021C115.695 130.069 115.356 127.91 115.684 125.792C116.012 123.673 116.994 121.681 118.517 120.043C116.837 117.985 115.973 115.478 116.062 112.923C116.151 110.369 117.189 107.916 119.009 105.958H119.017Z" fill="#6B00FF"/>
<path opacity="0.1" d="M141.307 113.642C141.221 116.198 140.179 118.653 138.352 120.607C139.758 122.329 140.599 124.373 140.778 126.506C140.958 128.638 140.469 130.774 139.367 132.667C138.265 134.561 136.595 136.136 134.548 137.213C132.501 138.291 130.159 138.826 127.791 138.759C125.422 138.691 123.122 138.024 121.154 136.832C119.187 135.641 117.63 133.973 116.663 132.021C115.695 130.069 115.356 127.91 115.684 125.792C116.012 123.673 116.994 121.681 118.517 120.043C116.899 118.058 141.351 112.365 141.307 113.642Z" fill="black"/>
</g>
<g opacity="0.2">
<path opacity="0.2" d="M232.301 150C232.283 150.454 232.222 150.906 232.122 151.351C228.822 150.875 225.499 150.45 222.152 150.075C222.152 149.955 222.152 149.833 222.152 149.708C222.184 148.425 222.593 147.172 223.339 146.079C224.324 144.686 225.801 143.813 227.434 143.857C229.066 143.901 230.487 144.859 231.373 146.302C232.042 147.438 232.362 148.714 232.301 150V150Z" fill="var(--progress-color")/>
<path opacity="0.2" d="M232.569 142.683C232.685 139.373 230.508 136.625 227.707 136.545C224.906 136.465 222.541 139.084 222.425 142.394C222.309 145.703 224.486 148.451 227.287 148.531C230.089 148.611 232.453 145.993 232.569 142.683Z" fill="var(--progress-color")/>
<path opacity="0.2" d="M232.825 135.358C232.941 132.048 230.764 129.3 227.963 129.221C225.162 129.141 222.797 131.759 222.681 135.069C222.565 138.378 224.742 141.126 227.543 141.206C230.345 141.286 232.709 138.668 232.825 135.358Z" fill="var(--progress-color")/>
<path opacity="0.2" d="M233.084 128.033C233.199 124.723 231.023 121.976 228.221 121.896C225.42 121.816 223.055 124.434 222.94 127.744C222.824 131.054 225.001 133.801 227.802 133.881C230.603 133.961 232.968 131.343 233.084 128.033Z" fill="var(--progress-color")/>
<path opacity="0.2" d="M233.051 120.375C233.161 117.064 230.978 114.318 228.176 114.242C225.373 114.166 223.012 116.789 222.902 120.1C222.792 123.412 224.974 126.158 227.777 126.233C230.58 126.309 232.941 123.686 233.051 120.375Z" fill="var(--progress-color")/>
<path opacity="0.2" d="M211.016 69.894C210.351 69.0781 209.75 68.222 209.216 67.3316L222.61 65.736L208.194 65.4227C206.907 62.6681 206.255 59.7053 206.28 56.7157C206.304 53.726 207.004 50.7723 208.337 48.0353L227.357 57.6379L209.94 45.2996C211.701 42.7404 214.027 40.536 216.774 38.8238C219.52 37.1116 222.628 35.9282 225.903 35.3475C229.178 34.7669 232.551 34.8013 235.811 35.4486C239.07 36.0959 242.148 37.3423 244.851 39.1101C247.553 40.8779 249.824 43.1292 251.52 45.7237C253.217 48.3181 254.303 51.2002 254.712 54.1902C255.12 57.1803 254.842 60.2142 253.894 63.1029C252.947 65.9916 251.35 68.6733 249.204 70.9807C250.241 72.2506 251.124 73.6178 251.836 75.0586L234.254 82.6789L252.895 77.6121C254.07 81.1043 254.261 84.8058 253.451 88.3816C252.642 91.9573 250.857 95.2944 248.259 98.0907C250.965 101.405 252.583 105.34 252.928 109.446C253.273 113.551 252.331 117.661 250.21 121.307C248.089 124.952 244.874 127.984 240.933 130.058C236.992 132.132 232.484 133.163 227.925 133.033C223.366 132.903 218.939 131.618 215.15 129.324C211.362 127.031 208.365 123.821 206.503 120.063C204.64 116.304 203.987 112.149 204.618 108.071C205.249 103.993 207.138 100.158 210.07 97.004C206.839 93.043 205.175 88.2169 205.346 83.3002C205.518 78.3835 207.514 73.6614 211.016 69.8917V69.894Z" fill="#6B00FF"/>
<path opacity="0.1" d="M253.931 84.6856C253.769 89.6034 251.774 94.328 248.268 98.0951C250.974 101.41 252.592 105.345 252.937 109.45C253.282 113.556 252.34 117.666 250.219 121.311C248.098 124.956 244.883 127.989 240.942 130.063C237.001 132.136 232.493 133.167 227.934 133.037C223.375 132.908 218.948 131.622 215.159 129.329C211.371 127.035 208.374 123.826 206.512 120.067C204.649 116.309 203.996 112.153 204.627 108.075C205.258 103.998 207.147 100.163 210.079 97.0084C206.943 93.1838 254.017 82.2255 253.931 84.6856Z" fill="black"/>
</g>
<path d="M38.8581 150.391L41.4409 150.384H45.0824L49.6867 82.8746L95.2837 14.1984L93.3017 12.2783V7.41589L43.9892 81.2834L38.8581 150.391Z" fill="var(--progress-color2")/>
<path opacity="0.1" d="M41.7166 150.384H45.0824L49.6867 82.8745L95.2837 14.1983L93.3017 12.2783L46.2692 81.8456L41.7166 150.384Z" fill="black"/>
<path d="M31.2475 150.953L149.395 159.113L149.496 159.12L263.837 152.773L263.923 152.769V148.411L137.934 146.324L32.8208 146.233H32.0526L31.9689 146.722L31.2475 150.953Z" fill="var(--progress-color2")/>
<path opacity="0.1" d="M31.2475 150.953L149.395 159.113L149.496 159.12L263.837 152.773L263.923 152.689V148.502H263.822L149.395 151.951L32.8208 146.233H32.8036L32.5967 146.355L31.9689 146.722L31.2475 150.953Z" fill="black"/>
<path opacity="0.1" d="M31.2475 150.953L149.395 159.113V151.951L32.5967 146.355L31.9689 146.722L31.2475 150.953Z" fill="black"/>
<path d="M93.2869 12.1872L145.374 62.647L143.764 151.406L148.189 151.889L148.262 151.897H152.687L153.216 66.4583L250.75 95.864L252.395 148.222L255.956 148.582L257.162 148.704L254.37 92.2327L152.411 59.9247L96.505 7.46698H93.2869V12.1872Z" fill="var(--progress-color2")/>
<path opacity="0.1" d="M152.815 64.8249L153.216 66.4583L250.75 95.864L252.395 148.222L255.956 148.582L253.163 94.775L152.815 64.8249Z" fill="black"/>
<path opacity="0.1" d="M93.2869 12.1872L145.374 62.647L143.764 151.406L148.189 151.888L149.395 59.7425L93.2869 7.46698V12.1872Z" fill="black"/>
<path d="M153.005 100.446L188.778 106.804L188.79 106.807L251.445 117.947L254.313 116.909L254.303 116.727L254.116 113.116L153.041 94.6816L153.005 100.446Z" fill="var(--progress-color2")/>
<path opacity="0.1" d="M188.79 106.807L251.445 117.947L254.313 116.909L254.303 116.727L188.79 106.807Z" fill="black"/>
<path d="M191.186 77.9055L192.153 125.983L192.653 150.648L197.058 150.515L199.83 150.431L198.968 78.601L197.058 78.0277L196.639 77.9055H191.186Z" fill="var(--progress-color2")/>
<path opacity="0.1" d="M191.225 77.8943V77.9055L192.153 125.983L192.653 150.648L197.058 150.515V77.8943H191.225Z" fill="var(--progress-color2")/>
<path d="M122.188 90.1837C122.446 90.3105 122.693 90.4554 122.927 90.6171C123.202 90.835 123.45 91.0803 123.665 91.3482C124.721 92.5816 125.696 94.015 125.593 95.5706C125.595 95.797 125.548 96.0215 125.454 96.2312C125.359 96.441 125.22 96.6319 125.044 96.7929C124.608 97.1285 123.983 97.144 123.412 97.144C122.791 97.144 122.139 97.144 121.602 96.8551C121.065 96.5662 120.617 96.004 119.982 96.0173C119.892 96.0307 119.801 96.0307 119.711 96.0173C119.492 95.9529 119.448 95.6929 119.305 95.5284C119.058 95.2328 118.539 95.3062 118.152 95.4351C117.766 95.564 117.337 95.7573 116.956 95.6084C116.734 95.5029 116.553 95.3395 116.436 95.1395C115.523 93.8061 115.328 92.2038 115.156 90.6549C115.05 89.7126 114.242 86.4991 116.471 87.2303C117.456 87.5503 118.376 88.1903 119.273 88.6592L122.188 90.1837Z" fill="var(--progress-color")/>
<path d="M119.987 90.5015C120.186 90.6307 120.427 90.6961 120.672 90.6873C120.917 90.6784 121.152 90.5958 121.339 90.4526C121.705 90.1536 121.939 89.7445 121.996 89.3015C122.242 89.2326 122.368 89.5237 122.525 89.7015C122.801 90.0037 123.362 89.9993 123.614 90.3215C123.788 90.5438 123.749 90.8527 123.872 91.1038C124.032 91.4282 124.429 91.5971 124.699 91.8594C124.955 92.1459 125.14 92.4786 125.241 92.835L125.645 93.9283C125.838 94.383 125.962 94.8592 126.014 95.3439C126.04 95.5863 126.011 95.8307 125.931 96.0631C125.851 96.2955 125.72 96.5111 125.546 96.6973C125.005 97.224 124.116 97.2796 123.33 97.264C123.068 97.2691 122.806 97.2414 122.552 97.1818C121.856 96.9862 121.41 96.3529 121.225 95.7151C121.041 95.0773 121.06 94.4084 120.952 93.755C120.835 93.1132 120.628 92.4874 120.336 91.8927C120.12 91.4305 119.524 90.7415 119.534 90.2504C119.711 90.2504 119.839 90.3971 119.987 90.5015Z" fill="var(--progress-color")/>
<path d="M120.871 88.2503C120.756 87.9348 120.689 87.6066 120.671 87.2747C120.671 86.608 121.009 85.9813 121.348 85.3857L118.534 85.7302C118.194 85.7724 117.815 85.8346 117.623 86.0902C117.55 86.2169 117.512 86.3575 117.512 86.5002C117.512 86.643 117.55 86.7836 117.623 86.9102C117.764 87.1638 117.876 87.4296 117.958 87.7036C117.964 87.9434 117.995 88.1822 118.049 88.417C118.137 88.5895 118.259 88.7455 118.411 88.877C119.216 89.6815 119.819 90.6304 120.42 91.5704C120.403 91.5438 122.117 90.3459 122.048 89.9548C122.008 89.7326 121.513 89.4659 121.356 89.2526C121.138 88.9429 120.974 88.6049 120.871 88.2503V88.2503Z" fill="#BE6F72"/>
<path d="M145 79.5677V81.7567L103.47 89.0681L101.316 90.246H93.8828V89.0126L134.686 80.1144L145 79.5677Z" fill="#F1C0C0"/>
<path opacity="0.1" d="M145 81.7567L103.47 89.0681L101.316 90.2459H93.8828L134.989 82.3056L145 81.7567Z" fill="black"/>
<path d="M111.657 141.708C111.194 141.202 110.556 140.853 109.845 140.716C109.134 140.58 108.393 140.665 107.742 140.957C107.603 141.016 107.48 141.103 107.383 141.21C107.137 141.521 107.294 141.95 107.316 142.335C107.373 143.273 106.546 144.035 105.802 144.69C105.403 145.042 104.997 145.417 104.817 145.895C104.638 146.373 104.771 146.979 105.253 147.228C105.464 147.324 105.693 147.381 105.928 147.397C106.715 147.536 107.522 147.556 108.316 147.457C109.101 147.322 109.872 146.919 110.212 146.266C110.277 146.089 110.386 145.927 110.53 145.793C110.963 145.484 111.628 145.846 112.12 145.626C112.526 145.444 112.544 145.157 112.549 144.779C112.563 143.735 112.391 142.553 111.657 141.708Z" fill="#6B00FF"/>
<path d="M117.566 141.668C117.869 142.388 117.911 143.173 117.951 143.942C117.973 144.386 117.987 144.862 117.722 145.237C117.456 145.613 116.936 145.81 116.439 145.904C115.412 146.095 114.223 145.915 113.56 145.179C113.053 144.617 112.947 143.846 113.041 143.117C113.12 142.519 113.287 141.819 112.812 141.395C112.689 141.281 112.529 141.201 112.416 141.079C112.169 140.808 112.209 140.399 112.342 140.066C112.515 139.747 112.645 139.41 112.728 139.064C112.748 138.899 116.062 139.179 116.367 139.315C116.783 139.499 116.719 139.808 116.845 140.181C117.02 140.701 117.355 141.17 117.566 141.668Z" fill="#6B00FF"/>
<path d="M118.175 109.742C118.825 110.122 119.076 110.869 119.177 111.562C119.455 113.463 118.967 115.383 118.93 117.3C118.896 119.987 119.758 122.723 119.022 125.325C118.581 126.881 118.955 128.659 118.541 130.23C118.418 130.697 118.192 131.137 118.074 131.603C117.827 132.614 118.086 133.672 118.433 134.661C118.544 134.928 118.614 135.207 118.642 135.49C118.626 135.927 118.503 136.355 118.283 136.744L116.806 139.897C116.641 140.25 115.991 140.308 115.575 140.355C114.792 140.439 113.918 140.499 113.295 140.061C112.672 139.624 112.521 138.89 112.425 138.206C112.241 136.892 112.159 135.568 112.179 134.243C112.206 133.898 112.172 133.55 112.078 133.214C111.943 132.834 111.645 132.506 111.564 132.103C111.46 131.583 111.753 131.072 111.862 130.548C111.936 130.069 111.928 129.582 111.837 129.105C111.741 128.394 111.63 127.683 111.505 126.976C111.327 125.988 111.581 125.012 111.751 124.021C111.911 123.09 111.706 122.141 111.505 121.216C111.522 121.967 111.418 122.715 111.197 123.439C111.066 123.792 110.879 124.13 110.766 124.49C110.261 126.105 111.337 127.801 111.184 129.474C111.113 130.257 110.773 131.03 110.869 131.801C110.936 132.366 111.226 132.883 111.426 133.421C111.625 133.959 111.729 134.575 111.426 135.077C110.626 136.441 111.224 138.297 111.94 139.697C112.086 139.945 112.212 140.202 112.32 140.466C112.531 141.097 112.354 141.775 112.411 142.433C112.204 142.463 111.993 142.451 111.793 142.396C111.593 142.342 111.409 142.247 111.256 142.119C111.148 142.017 111.059 141.897 110.953 141.79C110.657 141.536 110.307 141.339 109.924 141.21C109.699 141.097 109.443 141.044 109.185 141.057C108.915 141.125 108.671 141.262 108.483 141.45C108.24 141.644 107.982 141.821 107.71 141.982C107.595 142.062 107.46 142.116 107.316 142.139C107.244 142.149 107.171 142.139 107.106 142.109C107.041 142.079 106.988 142.031 106.954 141.973C106.939 141.936 106.93 141.897 106.927 141.857C106.836 141.186 106.787 140.511 106.782 139.835C106.782 138.672 105.241 137.872 105.046 136.724C104.891 135.797 105.179 134.852 105.083 133.919C105.036 133.439 104.889 132.968 104.899 132.488C104.899 132.177 104.977 131.872 105.004 131.563C105.027 131.22 105.021 130.876 104.987 130.534L104.911 129.461C104.837 128.401 104.756 127.319 104.293 126.35C103.744 125.218 103.419 124.009 103.333 122.776C103.283 121.998 103.315 121.221 103.217 120.441C103.128 119.736 102.931 119.036 102.988 118.329C103.035 117.783 103.234 117.254 103.281 116.707C103.377 115.656 102.934 114.634 102.587 113.627C102.239 112.62 101.983 111.505 102.439 110.534C102.504 110.374 102.612 110.232 102.754 110.12C102.929 110.016 103.127 109.949 103.335 109.925C107.56 109.124 111.89 108.874 116.193 109.185C116.894 109.22 117.575 109.412 118.175 109.742Z" fill="var(--progress-color")/>
<path d="M104.197 86.1391C106.375 86.1391 108.141 84.5452 108.141 82.5789C108.141 80.6127 106.375 79.0188 104.197 79.0188C102.018 79.0188 100.252 80.6127 100.252 82.5789C100.252 84.5452 102.018 86.1391 104.197 86.1391Z" fill="#BE6F72"/>
<path d="M103.434 87.0258C103.49 87.2293 103.49 87.4423 103.434 87.6459C103.372 87.7881 103.284 87.9202 103.175 88.037C102.793 88.4815 102.371 88.8963 101.912 89.277C102.146 89.7482 102.566 90.1232 103.091 90.3282C103.612 90.5284 104.159 90.6695 104.719 90.7482C104.998 90.8145 105.289 90.8326 105.576 90.8015C105.84 90.7416 106.09 90.6392 106.314 90.4993L108.506 89.3148C108.836 89.1532 109.142 88.9537 109.417 88.7215C109.819 88.3486 110.046 87.8505 110.052 87.3303C110.062 87.2371 110.034 87.1438 109.973 87.0681C109.889 87.0021 109.784 86.9623 109.673 86.9547C108.902 86.8014 108.294 86.2369 107.949 85.5969C107.638 84.9408 107.436 84.2465 107.351 83.5368L105.014 84.648C104.667 84.8146 104.322 84.9813 103.963 85.1258C103.734 85.2191 103.271 85.2969 103.109 85.4858C102.798 85.8347 103.352 86.6058 103.434 87.0258Z" fill="#BE6F72"/>
<path d="M101.927 88.6303C101.594 88.8765 101.334 89.1934 101.171 89.5526C101.018 89.9971 101.171 90.466 101.309 90.906C101.955 92.7815 102.449 94.697 102.786 96.6373C102.993 97.9707 103.069 99.3241 103.17 100.673C103.377 103.424 103.677 107.811 104.079 110.545C105.556 110.605 106.996 110.216 108.461 110.073C111.199 109.811 114.018 110.411 116.7 109.851C116.05 107.533 115.4 103.575 114.75 101.26C114.462 100.347 114.263 99.4142 114.154 98.4708C114.097 97.7929 114.132 97.1129 114.142 96.4307C114.164 95.0973 114.082 93.7639 114.001 92.4305C113.908 90.8749 113.814 89.3193 113.405 87.797C113.377 87.603 113.276 87.4235 113.12 87.2881C112.874 87.1258 112.553 87.1836 112.26 87.2192C111.363 87.322 110.455 87.1278 109.705 86.6725C109.38 86.4725 108.944 86.228 108.641 86.4503C108.512 86.5843 108.427 86.7482 108.395 86.9236C108.261 87.238 108.054 87.5229 107.788 87.7594C107.522 87.9959 107.204 88.1784 106.854 88.2948C106.152 88.5241 105.417 88.6604 104.672 88.6992C104.444 88.7434 104.206 88.7192 103.995 88.6303C103.645 88.437 103.621 87.7414 103.18 87.6948C102.793 87.6547 102.188 88.4059 101.927 88.6303Z" fill="var(--progress-color")/>
<path d="M107.752 94.0572C106.844 93.2727 106.445 92.1349 105.782 91.1682C105.331 90.5182 104.755 89.9462 104.081 89.4793C103.742 89.2772 103.431 89.0392 103.155 88.7703C102.921 88.5103 102.744 88.1636 102.39 88.0636C102.243 88.0349 102.091 88.0386 101.946 88.0746C101.802 88.1106 101.669 88.1778 101.56 88.2703C101.343 88.457 101.137 88.6544 100.944 88.8614C99.9003 89.837 98.066 89.9726 97.2387 91.1015C97.0155 91.3409 96.8638 91.6278 96.798 91.9349C96.5598 93.578 97.0305 95.2409 98.1128 96.5795C98.3223 96.8898 98.6441 97.1253 99.0238 97.2462C98.9723 97.6606 99.0331 98.0801 99.2011 98.4685C99.6569 99.875 100.217 101.252 100.878 102.591C100.72 103.115 100.609 103.649 100.548 104.189C100.376 105.547 100.536 106.924 100.373 108.284C100.24 109.396 99.8806 110.478 99.8683 111.591C99.8683 111.769 99.8855 111.98 100.055 112.071C100.146 112.113 100.247 112.132 100.348 112.127L103.377 112.209C105.135 112.256 106.91 112.302 108.641 112.009C108.872 111.978 109.095 111.915 109.303 111.82C109.889 111.525 110.084 110.858 110.177 110.265C110.3 109.495 110.348 108.717 110.323 107.94C110.69 108.987 111.125 110.069 112.233 110.522C112.819 110.762 113.489 110.745 114.132 110.729C115.517 110.673 116.897 110.545 118.266 110.345C118.35 110.354 118.436 110.346 118.516 110.32C118.596 110.294 118.668 110.252 118.727 110.196C118.785 110.141 118.829 110.073 118.853 110C118.878 109.927 118.883 109.849 118.869 109.773L118.884 108.56C118.913 106.095 118.236 103.74 117.973 101.286C117.889 100.513 117.896 99.7308 117.687 98.973C117.601 98.6552 117.475 98.3441 117.399 98.024C117.333 97.7107 117.292 97.3937 117.276 97.0751L117.084 94.6306C116.993 93.4994 116.862 92.4083 116.766 91.2793C116.713 90.18 116.537 89.0884 116.239 88.0214C116.025 87.3547 115.579 86.5991 114.809 86.5169C114.398 86.4747 113.999 86.6369 113.607 86.7503C112.645 87.0237 111.612 87.0198 110.653 86.7391C110.356 86.6335 110.047 86.5589 109.732 86.5169C109.573 86.4974 109.411 86.5164 109.263 86.5718C109.115 86.6273 108.986 86.7172 108.89 86.8325C108.794 87.0061 108.749 87.1989 108.759 87.3925C108.643 89.6126 108.429 91.8994 107.752 94.0572Z" fill="#6B00FF"/>
<path d="M103.791 94.1239C102.656 93.0438 101.491 91.9438 100.028 91.2571C99.4522 90.986 98.7973 90.7815 98.1596 90.8837C97.5219 90.986 96.9285 91.486 96.958 92.0704C96.9777 92.4327 97.2215 92.7527 97.2978 93.1083C97.3864 93.5083 97.2584 93.935 97.3963 94.3217C97.5083 94.5765 97.6758 94.8084 97.8887 95.0039L99.6319 96.8684C100.371 97.6462 101.109 98.4352 102.06 98.973C103.01 99.5108 104.241 99.7619 105.285 99.3797C106.028 99.0681 106.645 98.5564 107.053 97.9151C107.486 97.2929 107.792 96.6129 108.198 95.9706C108.83 94.9444 109.665 94.0309 110.66 93.2749C110.148 93.1549 109.505 92.986 109.183 92.6082C109.091 92.4881 109.013 92.3601 108.949 92.226L108.55 91.4482C108.414 91.4418 108.279 91.4608 108.152 91.504C108.024 91.5473 107.909 91.6137 107.811 91.6993C107.64 91.8778 107.457 92.0463 107.262 92.2038C106.915 92.4394 106.445 92.5038 106.13 92.7727C106.008 92.8881 105.897 93.0131 105.8 93.146C105.561 93.4288 105.259 93.6624 104.912 93.831C104.566 93.9996 104.183 94.0995 103.791 94.1239V94.1239Z" fill="var(--progress-color")/>
<path d="M110.751 89.477C111.606 88.0703 111.566 86.3836 111.81 84.7946C111.836 84.3738 112 83.9695 112.28 83.6323C112.773 83.1301 113.642 83.1234 114.385 83.1879C114.604 83.2101 114.878 83.3034 114.865 83.5012C114.848 83.5721 114.81 83.6374 114.755 83.6901C114.034 84.5297 113.61 85.5457 113.538 86.6058C113.925 86.848 114.523 86.3502 114.895 86.6058C115.141 86.7925 115.028 87.1614 114.88 87.4281C114.537 88.0459 114.183 88.6592 113.819 89.2681C113.528 89.8048 113.149 90.2986 112.694 90.7326C112.381 91.0038 112.014 91.2171 111.697 91.4838C110.958 92.1083 110.512 92.9905 109.749 93.5994C109.685 93.6625 109.597 93.7027 109.503 93.7128C109.406 93.7065 109.314 93.6695 109.244 93.6083C108.863 93.3284 108.547 92.9833 108.314 92.5927C108.023 92.1083 108.067 91.966 108.525 91.6238C109.382 91.0127 110.217 90.3571 110.751 89.477Z" fill="#BE6F72"/>
<path d="M102.363 93.1684C102.51 93.2506 102.692 93.3439 102.855 93.275C102.921 93.2388 102.978 93.1894 103.02 93.1306C103.301 92.7915 103.536 92.4229 103.719 92.0327C103.751 91.9776 103.768 91.9169 103.771 91.855C103.771 91.7127 103.631 91.6083 103.5 91.526C102.801 91.1238 102.049 90.8013 101.262 90.566C100.612 90.3438 99.9323 90.1504 99.2429 90.206C98.9839 90.2217 98.731 90.2845 98.4996 90.3907C98.2681 90.4968 98.0629 90.6442 97.8961 90.8238C97.4037 91.3949 98.2285 91.5683 98.7456 91.7749C99.9422 92.2661 101.237 92.5505 102.363 93.1684Z" fill="#6B00FF"/>
<path opacity="0.1" d="M101.587 96.9462C101.579 96.9969 101.584 97.0487 101.602 97.0974C101.62 97.146 101.65 97.1902 101.69 97.2262C101.762 96.9107 101.668 96.5773 101.742 96.2595C101.85 95.7817 102.365 95.4217 102.409 94.9417C101.466 94.775 101.594 96.4306 101.587 96.9462Z" fill="black"/>
<path opacity="0.2" d="M145 79.5677V81.7567L134.989 82.3056L134.686 80.1144L145 79.5677Z" fill="black"/>
<path d="M100.646 83.1079C101.272 82.6478 100.91 81.6834 101.333 81.0656C101.58 80.7278 101.996 80.55 102.404 80.3989C102.898 80.1905 103.426 80.0583 103.968 80.0077C104.239 79.9842 104.513 80.0161 104.769 80.1012C105.024 80.1862 105.256 80.3221 105.445 80.4989C105.605 80.6633 105.714 80.8633 105.864 81.0344C106.05 81.2341 106.292 81.3845 106.565 81.4698C106.838 81.5551 107.132 81.5721 107.415 81.5189C107.742 81.4522 108.082 81.2278 108.06 80.9255C108.023 80.7417 107.919 80.5743 107.765 80.45L107.06 79.7455C106.26 78.9455 105.371 78.0965 104.197 77.8965C103.379 77.7565 102.542 77.9543 101.754 78.1921C101.437 78.2877 101.08 78.4299 100.991 78.721C100.932 78.921 101.021 79.1388 100.969 79.341C100.868 79.7433 100.297 79.8788 100.031 80.2166C99.7649 80.5544 99.8462 80.9544 99.7698 81.3278C99.6935 81.7011 99.4719 82.0656 99.4448 82.4523C99.4276 82.6856 99.5581 83.119 99.8486 83.2034C100.139 83.2879 100.467 82.8301 100.646 83.1079Z" fill="var(--progress-color")/>
<path d="M107.821 80.6055C107.614 79.6278 107.166 78.7044 106.511 77.9032C105.929 77.1546 105.119 76.5742 104.18 76.232C103.71 76.0663 103.205 75.9989 102.702 76.0347C102.199 76.0705 101.712 76.2086 101.277 76.4387C100.631 76.8549 100.128 77.4272 99.8265 78.0899C99.1888 79.3299 98.9524 80.8456 99.6935 82.0367C99.989 81.7123 100.496 81.8589 100.944 81.7411C101.506 81.5967 101.981 81.2589 102.515 81.0478C104.128 80.4055 106.098 80.9256 107.821 80.6055Z" fill="#FED253"/>
<path opacity="0.1" d="M100.07 80.5366C100.014 80.1366 99.9766 79.6722 100.292 79.3877C100.307 79.3703 100.327 79.3564 100.35 79.3472C100.373 79.3379 100.397 79.3335 100.422 79.3344C100.444 79.3408 100.465 79.3513 100.482 79.365C100.499 79.3788 100.513 79.3956 100.523 79.4144C100.705 79.6735 100.86 79.9473 100.986 80.2322C100.803 80.194 100.611 80.2065 100.435 80.2679C100.259 80.3293 100.108 80.4368 100.001 80.5766" fill="black"/>
<path opacity="0.1" d="M105.824 79.4078L105.736 78.6144C105.721 78.549 105.727 78.4814 105.753 78.4188C105.79 78.3665 105.847 78.3284 105.914 78.312C105.98 78.2956 106.051 78.302 106.112 78.3299C106.234 78.3905 106.333 78.4806 106.4 78.59C106.605 78.8739 106.776 79.1772 106.908 79.4944C106.511 79.4255 106.103 79.43 105.709 79.5078" fill="black"/>
<path opacity="0.1" d="M108.028 111.607V113.42L106.332 113.523H97.4086V111.607H108.028Z" fill="black"/>
<path d="M108.028 111.607V113.522H97.4086L69.197 81.6256V80.1189H75.1111L108.028 111.607Z" fill="#F1C0C0"/>
<path opacity="0.1" d="M108.028 111.607V113.522H97.4086L69.197 81.6256V80.1189H75.1111L108.028 111.607Z" fill="black"/>
<path opacity="0.1" d="M108.028 111.607V113.522H97.4086L69.197 81.6256V80.1189L97.5613 111.607H108.028Z" fill="black"/>
<path d="M72.8952 143.577C72.9137 143.667 72.9115 143.76 72.8886 143.849C72.8657 143.938 72.8226 144.023 72.7621 144.096C72.7016 144.17 72.6248 144.231 72.5367 144.277C72.4486 144.323 72.3511 144.351 72.2501 144.362C71.5656 144.57 70.8393 144.777 70.3542 145.25C69.8692 145.724 69.7731 146.602 70.3542 146.986C70.6512 147.148 70.9923 147.232 71.3391 147.228C72.4545 147.297 73.6166 147.284 74.6286 146.857C75.3524 146.555 76.0345 146.039 76.8297 146.086C77.2409 146.108 77.6792 146.282 78.0461 146.113C78.4129 145.944 78.5163 145.473 78.5188 145.079C78.5281 144.258 78.391 143.441 78.1125 142.659C78.0756 142.553 76.5097 142.47 76.3225 142.437L74.4242 142.215C74.0647 142.173 73.2891 141.928 73.006 142.199C72.7228 142.47 72.8952 143.255 72.8952 143.577Z" fill="#6B00FF"/>
<path d="M84.2237 138.03C84.304 138.43 84.4345 138.821 84.6127 139.195C84.8761 139.799 85.2135 140.441 85.8585 140.735C86.4445 140.999 87.1635 140.904 87.7593 140.652C88.008 140.56 88.226 140.41 88.3921 140.219C88.5843 139.917 88.6702 139.569 88.6383 139.221C88.6383 138.361 88.5817 137.472 88.1459 136.708C87.7716 136.041 87.1192 135.468 87.1093 134.73L84.8663 135.121C84.7462 135.132 84.6318 135.172 84.5364 135.239C84.4653 135.306 84.4159 135.39 84.3936 135.481C84.1541 136.313 84.0964 137.179 84.2237 138.03V138.03Z" fill="#6B00FF"/>
<path d="M57.4376 116.918C57.3441 117.634 57.3835 118.4 57.7971 119.018C58.2108 119.636 59.0824 120.045 59.8358 119.798C59.8744 119.789 59.9106 119.774 59.9424 119.752C59.9741 119.73 60.0006 119.703 60.0205 119.672C60.0405 119.596 60.0291 119.517 59.9885 119.449C59.6558 118.648 59.6832 117.761 60.0648 116.978C60.114 116.876 60.2199 116.756 60.3356 116.796C60.384 116.818 60.423 116.854 60.4464 116.898C60.5656 117.084 60.6253 117.297 60.6188 117.512C60.584 117.706 60.5774 117.904 60.5991 118.1C60.6459 118.292 60.8724 118.472 61.0694 118.389C61.1263 118.358 61.1755 118.316 61.2141 118.267C61.2526 118.217 61.2796 118.162 61.2934 118.103C61.8425 116.669 61.5938 115.103 61.3427 113.603C61.3448 113.568 61.3385 113.534 61.3242 113.502C61.3099 113.47 61.288 113.441 61.2601 113.417C61.2321 113.394 61.1988 113.376 61.1625 113.365C61.1261 113.355 61.0876 113.352 61.0497 113.356C59.8875 113.251 59.2523 113 58.5875 113.976C58.0163 114.798 57.4376 115.929 57.4376 116.918Z" fill="#6B00FF"/>
<path d="M71.0239 113.271C70.6792 114.565 70.3321 115.874 70.3099 117.203C70.316 118.03 70.3851 118.857 70.5167 119.676L70.7753 121.601C70.8639 122.249 70.9501 122.896 71.0756 123.538C71.1558 123.869 71.1995 124.207 71.2061 124.545C71.182 124.879 71.1235 125.21 71.0313 125.534C70.8765 126.215 70.79 126.906 70.7728 127.601C70.7457 128.712 70.8984 129.823 70.9944 130.934C71.1861 133.149 71.1572 135.374 70.9082 137.583C70.8088 138.18 70.9523 138.789 71.312 139.297C71.458 139.457 71.5782 139.635 71.669 139.826C71.8537 140.335 71.4228 140.844 71.312 141.366C71.2411 141.773 71.3523 142.189 71.6209 142.522C71.8896 142.856 72.2939 143.079 72.745 143.144C74.7147 143.355 76.7387 143.259 78.5139 144.073C78.701 143.579 78.2923 143.019 78.4794 142.517C78.5976 142.206 78.9226 142.004 79.1442 141.741C79.4419 141.342 79.5903 140.867 79.5677 140.386C79.5764 139.758 79.4527 139.134 79.2033 138.548C78.994 138.059 78.6936 137.577 78.7109 137.052C78.7109 136.795 78.8118 136.523 78.6961 136.286C78.6167 136.149 78.5089 136.028 78.3785 135.928C77.6426 135.2 77.1904 134.275 77.0907 133.294C76.9947 132.321 77.0294 131.34 77.1941 130.374C77.3148 129.454 77.4773 128.483 78.1249 127.765C77.8246 125.589 78.0011 123.38 78.6444 121.265C78.7084 121.069 78.8093 120.843 79.0309 120.796C79.119 120.788 79.2079 120.799 79.2902 120.828C79.3724 120.858 79.4457 120.905 79.5037 120.965C79.8902 121.292 80.0749 121.765 80.2423 122.218C80.427 122.71 80.6141 123.234 80.4738 123.736C80.4147 123.958 80.2965 124.154 80.2276 124.367C80.0778 124.796 80.104 125.259 80.3014 125.672C80.3977 125.823 80.458 125.99 80.4787 126.163C80.4559 126.312 80.4059 126.456 80.331 126.59C80.2396 126.853 80.2106 127.13 80.2458 127.404C80.2811 127.678 80.3797 127.942 80.5353 128.179C80.8491 128.651 81.2364 129.079 81.6852 129.452C81.4707 130.305 81.5262 131.195 81.8452 132.021C81.8682 132.058 81.8829 132.099 81.8884 132.141C81.8939 132.184 81.8901 132.227 81.8772 132.268C81.8329 132.352 81.7196 132.383 81.631 132.443C81.3848 132.625 81.5374 132.97 81.7024 133.208C82.1545 133.86 82.6538 134.486 83.1969 135.079C83.6894 135.61 83.6451 136.635 84.3788 136.826C84.6871 136.886 85.0061 136.886 85.3144 136.826C86.0383 136.726 86.8459 136.537 87.2004 135.959C87.3457 135.721 87.4048 135.432 87.6313 135.254C87.8578 135.077 88.1508 135.046 88.2764 134.832C88.402 134.619 88.2616 134.339 88.3035 134.092C88.3454 133.846 88.5842 133.648 88.6605 133.388C88.8427 132.788 88.0671 132.294 87.9612 131.681C87.8086 130.792 89.0495 130.125 88.9978 129.236C88.8895 127.305 88.8206 125.365 88.7098 123.434C88.5707 121.704 88.551 119.968 88.6507 118.236C88.7368 117.158 88.8969 116.029 88.4586 115.027C87.8283 113.614 86.09 112.82 84.4083 112.669C82.7267 112.518 81.0499 112.878 79.383 113.114C76.6165 113.498 73.8058 113.551 71.0239 113.271V113.271Z" fill="var(--progress-color")/>
<path d="M76.0221 92.0304C78.2006 92.0304 79.9666 90.4365 79.9666 88.4703C79.9666 86.5041 78.2006 84.9102 76.0221 84.9102C73.8437 84.9102 72.0777 86.5041 72.0777 88.4703C72.0777 90.4365 73.8437 92.0304 76.0221 92.0304Z" fill="#FBBEBE"/>
<path d="M74.4168 92.6949C74.2828 92.9765 74.0575 93.2149 73.7705 93.3788C73.4835 93.5426 73.1483 93.6242 72.809 93.6127C72.6662 94.1461 73.0084 94.6839 73.3999 95.1039C74.2129 95.9577 75.2634 96.6004 76.4432 96.9657C77.623 97.3309 78.8894 97.4055 80.1118 97.1818C80.5875 97.1049 81.0388 96.935 81.434 96.684C81.9668 96.2824 82.3245 95.7233 82.4435 95.1061C82.5568 94.4932 82.5891 93.8703 82.5395 93.2505C82.5533 93.1281 82.5146 93.0056 82.4312 92.9083C82.3327 92.8394 82.211 92.8033 82.0865 92.806C81.2543 92.7394 80.3851 92.7105 79.6539 92.3416C78.9226 91.9727 78.4031 91.1393 78.7552 90.4548C78.6985 90.5615 77.2606 90.6126 77.071 90.6348C76.4776 90.7104 75.8843 90.7948 75.2933 90.8926C75.0094 90.9067 74.7287 90.9545 74.4587 91.0349C74.1016 91.2015 74.2346 91.1193 74.3183 91.4215C74.4439 91.8838 74.6285 92.2149 74.4168 92.6949Z" fill="#FBBEBE"/>
<path d="M77.4182 94.8595C76.887 94.865 76.357 94.812 75.84 94.7017C75.3179 94.5916 74.8578 94.3145 74.5449 93.9217C74.3627 93.6728 74.2445 93.3594 73.9539 93.2194C73.4787 92.9972 72.9371 93.3727 72.5579 93.7172C72.2126 94.0569 71.8125 94.3476 71.3711 94.5794C70.8442 94.8306 70.2287 94.9195 69.7313 95.215C69.3428 95.48 69.0093 95.8051 68.7464 96.1751L65.2575 100.464C63.8566 102.189 62.6378 104.04 61.3895 105.86C60.3086 107.436 59.7423 109.249 58.9273 110.949C58.8627 111.053 58.836 111.173 58.8509 111.291C58.8805 111.407 59.0356 111.5 59.1439 111.433C58.7771 111.762 59.0996 112.322 59.0135 112.785C58.9155 113.108 58.7112 113.397 58.4275 113.614C58.9694 113.55 59.5196 113.573 60.0525 113.682C60.6033 113.823 61.123 114.049 61.5889 114.349C61.8868 114.307 61.8597 113.829 62.0813 113.651C62.2143 113.547 62.4113 113.56 62.5861 113.529C63.2435 113.414 63.5045 112.7 64.0092 112.298C64.4302 111.962 65.0261 111.853 65.4717 111.538C66.1956 111.025 66.3507 110.111 66.7299 109.353C67.0525 108.711 67.5597 108.151 67.8428 107.493C68.0275 107.067 68.1161 106.604 68.3796 106.211C68.8006 105.575 69.5934 105.238 70.3493 104.933C70.827 104.74 71.3342 104.54 71.8488 104.571C71.8217 105.604 71.6764 106.622 71.9251 107.631C72.0113 107.987 72.1319 108.333 72.2353 108.687C72.7056 110.278 72.8164 111.936 72.8386 113.576C73.9698 113.342 75.1252 113.217 76.2856 113.202C77.1991 113.178 78.1101 113.285 79.0236 113.269C80.1069 113.251 81.178 113.062 82.2613 112.996C83.3447 112.929 84.4773 112.996 85.4351 113.44C85.3573 112.032 85.4009 110.62 85.5656 109.218L85.8266 107.009C85.8855 106.367 85.9949 105.73 86.154 105.102C86.2968 104.595 86.5036 104.107 86.6612 103.602C87.2152 101.824 87.1143 99.9263 87.0084 98.0752C86.9542 97.124 86.548 96.1884 86.0703 95.3417C85.8974 95.0272 85.6999 94.7242 85.4794 94.435C84.9022 93.7172 84.1329 93.143 83.2434 92.7661C82.3539 92.3892 81.3731 92.2217 80.3925 92.2794C80.2673 92.2828 80.1438 92.3069 80.0281 92.3505C79.8203 92.4706 79.658 92.645 79.5628 92.8505C79.0534 93.6769 78.3142 94.3693 77.4182 94.8595Z" fill="var(--progress-color")/>
<path d="M72.5529 89.6504C72.6637 89.4282 72.9617 89.3459 73.1439 89.1682C73.4935 88.8304 73.3359 88.2903 73.3901 87.8348C73.4787 87.1681 74.0918 86.6103 74.7935 86.3725C75.5091 86.1652 76.2706 86.1217 77.0095 86.2458C77.3651 86.2693 77.7087 86.3724 78.0091 86.5458C78.1372 86.6303 78.2553 86.7392 78.376 86.817C78.5959 86.9369 78.8591 86.9746 79.1093 86.9218C79.3596 86.8691 79.5771 86.7302 79.7154 86.5347C78.8438 85.588 77.8786 84.588 76.554 84.2969C76.0995 84.2131 75.6365 84.1736 75.1727 84.1791C74.5596 84.168 73.9268 84.1591 73.3605 84.3702C72.5899 84.6569 72.0482 85.3169 71.77 86.028C71.5267 86.7489 71.3965 87.4969 71.3834 88.2503C71.3329 88.753 71.3329 89.2588 71.3834 89.7615C71.4786 90.448 71.7612 91.1024 72.2058 91.666C72.2659 91.7536 72.3509 91.8249 72.452 91.8727C73.5747 92.3172 72.4618 89.8349 72.5529 89.6504Z" fill="var(--progress-color")/>
<path d="M79.5874 85.9858C79.4519 84.9391 78.6247 84.0746 77.7457 83.379C77.0372 82.7759 76.1933 82.3173 75.2712 82.0345C74.3429 81.7878 73.2743 81.8412 72.4791 82.3412C71.8389 82.7434 71.4326 83.3835 71.1199 84.0279C70.7092 84.7885 70.5057 85.6266 70.5266 86.4725C70.5881 87.3125 71.0412 88.1637 71.8487 88.5881C72.1393 88.2015 72.644 88.0014 73.1291 87.8437C75.2431 87.1197 77.3991 86.4995 79.5874 85.9858V85.9858Z" fill="#FED253"/>
<path opacity="0.1" d="M72.1196 85.5502C72.1984 85.5502 72.2501 85.6236 72.2895 85.6836C72.49 85.9655 72.6622 86.263 72.8041 86.5725C72.516 86.6281 72.0211 86.6903 71.8783 86.4614C71.802 86.3458 71.8931 85.5391 72.1196 85.5502Z" fill="black"/>
<path opacity="0.1" d="M77.7309 85.048C77.6718 85.0991 77.6029 84.9946 77.6029 84.9191V84.0568C77.6013 84.0329 77.6072 84.009 77.6201 83.9879C77.6303 83.9774 77.6428 83.9688 77.6567 83.9627C77.6707 83.9566 77.6859 83.9531 77.7014 83.9524C77.9008 83.9324 78.0658 84.0857 78.1938 84.2324C78.3881 84.4701 78.5571 84.7238 78.6985 84.9902L77.657 84.9613" fill="black"/>
<path d="M90.7287 99.3263C90.9553 99.1322 91.1972 98.9532 91.4526 98.7907C92.1346 98.3796 92.9594 98.2174 93.7252 97.9552C94.4909 97.6929 95.2689 97.2685 95.5669 96.5795C95.716 96.1488 95.7646 95.6948 95.7097 95.2462C95.7168 95.0583 95.6799 94.8713 95.6013 94.6973C95.5076 94.5435 95.3742 94.4123 95.2123 94.315C94.1733 93.6217 92.7797 93.5661 91.4895 93.6372C88.6451 93.7964 85.857 94.4246 83.2634 95.4906C83.1262 95.5315 83.006 95.609 82.9187 95.7129C82.8682 95.8092 82.8453 95.9154 82.8522 96.0218C82.8063 96.6771 82.9008 97.3343 83.1304 97.9574C83.4702 98.7485 84.1695 99.3863 84.4625 100.193C84.5954 100.555 84.6398 100.94 84.7555 101.304C84.8504 101.681 85.097 102.012 85.4473 102.233C86.4199 102.758 87.3383 102.053 88.0129 101.506L90.7287 99.3263Z" fill="var(--progress-color")/>
<path d="M77.9919 102.404L76.7436 99.9464C76.5605 99.6057 76.4026 99.2546 76.2708 98.8952C76.128 98.4663 76.0591 98.0218 75.9261 97.5907C75.4878 96.1551 74.3823 94.9595 73.8431 93.5528C73.809 93.4257 73.7395 93.3087 73.6412 93.2127C73.5625 93.1625 73.4725 93.1285 73.3777 93.1131C73.2828 93.0978 73.1853 93.1014 73.0922 93.1238C72.3387 93.2416 71.7503 93.7594 71.0609 94.0528C70.7408 94.1861 70.3961 94.275 70.076 94.4283C69.916 94.4967 69.7742 94.5955 69.6604 94.7178C69.5465 94.8402 69.4632 94.9832 69.4161 95.1373C69.3398 95.4773 69.5269 95.804 69.6845 96.1351C70.3542 97.4996 70.5069 99.0241 70.5364 100.517C70.5586 101.522 70.502 102.6 69.8446 103.406C68.5815 104.962 69.389 107.247 69.8618 109.129C69.9184 109.351 69.9849 109.591 70.0243 109.827C70.0659 110.122 70.0849 110.419 70.0809 110.716C70.0809 111.714 70.0194 112.742 69.5565 113.647C70.0135 113.866 70.5172 113.995 71.0338 114.025C72.4635 114.189 73.8989 114.305 75.3401 114.371C75.7917 114.41 76.247 114.389 76.6919 114.309C77.2202 114.18 77.6859 113.896 78.0154 113.502C78.3449 113.107 78.5194 112.625 78.5114 112.131C78.5902 112.747 78.7355 113.416 79.2304 113.842C79.7253 114.269 80.4467 114.334 81.1188 114.367C83.0159 114.458 84.918 114.409 86.8065 114.222C86.927 114.218 87.0455 114.193 87.1561 114.149C87.5205 113.985 87.5402 113.531 87.5106 113.167C87.4565 112.485 87.3998 111.802 87.3087 111.125C87.2315 110.692 87.192 110.256 87.1906 109.818C87.2281 109.368 87.3105 108.921 87.4368 108.484C87.7667 107.098 88.0277 105.682 87.9169 104.262C87.8731 103.916 87.8575 103.568 87.8701 103.22C87.9341 102.435 88.3921 101.689 88.3059 100.909C88.0597 98.6152 87.8603 96.2618 87.1512 94.0483C87.0231 93.6528 86.8606 93.2283 86.479 93.0016C85.9866 92.7038 85.2947 92.8594 84.7309 92.6705C84.4663 92.5594 84.2147 92.4246 83.9799 92.2683C83.4697 91.9803 82.8848 91.8178 82.2835 91.7971C81.8304 91.7816 81.3257 91.8727 81.0524 92.2016C80.9258 92.3868 80.8421 92.5931 80.8061 92.8083C80.4491 94.1639 80.0306 95.5039 79.612 96.844L79.2107 98.1285L78.1347 101.578C78.0288 101.944 78.1002 102.058 77.9919 102.404Z" fill="#6B00FF"/>
<path d="M84.2877 88.9481L108.104 111.538V113.454H97.4849L79.5874 92.3705" fill="#F1C0C0"/>
<path opacity="0.1" d="M84.2877 88.9481L108.104 111.538V113.454H97.4849L79.5874 92.3705" fill="black"/>
<path opacity="0.1" d="M79.9665 92.0727L80.0429 92.0971L97.6376 111.538H108.104V113.454H97.4849L79.5874 92.3705L79.9665 92.0727Z" fill="black"/>
<path d="M82.707 92.5483C81.8452 92.8883 80.8874 93.3239 80.6289 94.1417C80.5778 94.2852 80.5668 94.4379 80.5969 94.5862C80.6598 94.7605 80.7799 94.9135 80.9413 95.025C81.1026 95.1365 81.2976 95.2012 81.5005 95.2106C81.9059 95.2195 82.3091 95.1529 82.6848 95.0151L87.7692 93.4994C87.9071 93.4594 88.0647 93.3994 88.0991 93.2772C88.108 93.2003 88.0908 93.1229 88.0499 93.055C87.8923 92.7083 87.7372 91.9994 87.4073 91.7571C87.1364 91.5616 86.5997 91.6305 86.2722 91.6349C85.0116 91.6438 83.8273 92.1038 82.707 92.5483Z" fill="#6B00FF"/>
<path d="M87.2398 93.6794C88.0964 93.6772 88.948 93.7964 89.7635 94.0328C90.5827 94.2729 91.3083 94.7202 91.8539 95.3217C92.0128 95.4899 92.1258 95.6893 92.1839 95.904C92.2331 96.1262 93.0358 96.2596 92.8585 96.4107C93.3977 96.3329 93.2697 96.5618 93.8163 96.5574C94.3629 96.5529 94.9538 96.4262 95.2813 96.0329C95.5088 95.7098 95.6102 95.3273 95.5693 94.9462C95.5765 94.6823 95.5211 94.4202 95.4068 94.1773C95.1606 93.7106 94.5943 93.4594 94.0723 93.2439L89.6749 91.4282C89.4198 91.3058 89.146 91.2181 88.8624 91.1682C88.6237 91.1479 88.3832 91.1531 88.1459 91.1838L86.154 91.3904C86.5896 91.6449 86.9443 91.9974 87.183 92.4132C87.4218 92.829 87.5364 93.2937 87.5156 93.7617" fill="var(--progress-color")/>
</g>
<defs>
<clipPath id="clip0">
<rect width="290" height="161" fill="white"/>
</clipPath>
</defs>
</svg>
